<?xml version="1.0" encoding="utf-8"?>
<!-- Generator: Adobe Illustrator 18.0.0, SVG Export Plug-In . SVG Version: 6.00 Build 0)  -->
<!DOCTYPE svg PUBLIC "-//W3C//DTD SVG 1.1//EN" "http://www.w3.org/Graphics/SVG/1.1/DTD/svg11.dtd">
<svg version="1.1" id="图层_1" xmlns="http://www.w3.org/2000/svg" xmlns:xlink="http://www.w3.org/1999/xlink" x="0px" y="0px"
	 viewBox="0 211 960 148" enable-background="new 0 211 960 148" xml:space="preserve">
<path fill="#F7F7F7" d="M68.9,344.9h341.2c33.7,0,60.9-27.2,60.9-60.9l0,0c0-33.7-27.2-60.9-60.9-60.9H68.9
	C35.1,223,7.9,250.2,7.9,284l0,0C7.9,318,35.1,344.9,68.9,344.9z"/>
<g>
	<path fill="#BFC2B6" d="M550.9,344.9h340.5c33.7,0,60.9-27.2,60.9-60.9l0,0c0-33.7-27.2-60.9-60.9-60.9H550.9
		c-33.7,0-60.9,27.2-60.9,60.9l0,0C490,318,517.2,344.9,550.9,344.9z"/>
	<path fill="none" stroke="#9C9D92" stroke-miterlimit="10" d="M890.8,353.5H552c-38.2,0-69.2-31-69.2-69.2l0,0
		c0-38.2,31-69.2,69.2-69.2h338.8c38.2,0,69.2,31,69.2,69.2l0,0C960,322.5,929,353.5,890.8,353.5z"/>
</g>
</svg>
