<?xml version="1.0" encoding="utf-8"?>
<!-- Generator: Adobe Illustrator 18.0.0, SVG Export Plug-In . SVG Version: 6.00 Build 0)  -->
<!DOCTYPE svg PUBLIC "-//W3C//DTD SVG 1.1//EN" "http://www.w3.org/Graphics/SVG/1.1/DTD/svg11.dtd">
<svg version="1.1" id="图层_1" xmlns="http://www.w3.org/2000/svg" xmlns:xlink="http://www.w3.org/1999/xlink" x="0px" y="0px"
	 viewBox="0 211 480 148" enable-background="new 0 211 480 148" xml:space="preserve">
<g>
	<path fill="#BFC2B6" d="M69.6,345.6h340.5c33.7,0,60.9-27.2,60.9-60.9l0,0c0-33.7-27.2-60.9-60.9-60.9H69.6
		c-33.7,0-60.9,27.2-60.9,60.9l0,0C8.6,318.7,35.8,345.6,69.6,345.6z"/>
	<path fill="none" stroke="#9C9D92" stroke-miterlimit="10" d="M409.4,354.2H70.6c-38.2,0-69.2-31-69.2-69.2l0,0
		c0-38.2,31-69.2,69.2-69.2h338.8c38.2,0,69.2,31,69.2,69.2l0,0C478.6,323.2,447.6,354.2,409.4,354.2z"/>
</g>
</svg>
