<?xml version="1.0" encoding="utf-8"?>
<!-- Generator: Adobe Illustrator 18.0.0, SVG Export Plug-In . SVG Version: 6.00 Build 0)  -->
<!DOCTYPE svg PUBLIC "-//W3C//DTD SVG 1.1//EN" "http://www.w3.org/Graphics/SVG/1.1/DTD/svg11.dtd">
<svg version="1.1" id="图层_1" xmlns="http://www.w3.org/2000/svg" xmlns:xlink="http://www.w3.org/1999/xlink" x="0px" y="0px"
	 viewBox="0 0 1190.6 841.9" enable-background="new 0 0 1190.6 841.9" xml:space="preserve">
<path fill="#CD235C" d="M849.5,835.9H302.3C225.9,835.9,164,774,164,697.6V150.4C164,74,225.9,12,302.3,12h547.2
	c76.4,0,138.3,61.9,138.3,138.3v547.2C987.8,774,925.9,835.9,849.5,835.9z"/>
<g>
	<path fill="#FFFFFF" d="M606.2,271.8v125l-66.8,0.3V234.3h111.7c57.6,0,104.2,51,104.2,113.9v264.9l-203.8,0.6
		c-96.8,0.2-175.4-85.4-175.4-191.2l-0.1-188h71.6v167.1c3.8,36,28.4,108.1,119.6,114.3c36.8,1.9,111.9-20,125.7-108
		c9.6-93.3-23.9-135.1-71.6-137.2C621.4,270.3,615.4,269.8,606.2,271.8z"/>
</g>
</svg>
