<?xml version="1.0" encoding="utf-8"?>
<!-- Generator: Adobe Illustrator 18.0.0, SVG Export Plug-In . SVG Version: 6.00 Build 0)  -->
<!DOCTYPE svg PUBLIC "-//W3C//DTD SVG 1.1//EN" "http://www.w3.org/Graphics/SVG/1.1/DTD/svg11.dtd">
<svg version="1.1" id="图层_1" xmlns="http://www.w3.org/2000/svg" xmlns:xlink="http://www.w3.org/1999/xlink" x="0px" y="0px"
	 viewBox="350.6 0 503.5 841.9" enable-background="new 350.6 0 503.5 841.9" xml:space="preserve">
<g id="图层_2">
	<g>
		<g>
			<rect x="350.6" y="0" fill="#CD235C" width="503.5" height="841.9"/>
		</g>
		<rect x="350.6" y="0" fill="#CD235C" width="503.5" height="78.6"/>
	</g>
	<g>
		<g>
			<rect x="350.6" y="0" fill="#FFFFFF" width="503.5" height="841.9"/>
		</g>
		<rect x="350.6" y="0" fill="#CD235C" width="503.5" height="55.4"/>
	</g>
</g>
<g id="图层_5">
	<g>
		<g>
			<path fill="#0DAC67" d="M725.3,98.2H618.6l26.8-20.5c6.1-4.7,13.6-7.2,21.4-7.2h58.5V98.2z"/>
		</g>
	</g>
	<g>
		<g>
			<path fill="#9E9E9F" d="M350.6,70.6h36.8c15.3,0,27.6,12.3,27.6,27.6l0,0h-64.4V70.6z"/>
		</g>
	</g>
	<text transform="matrix(0.9976 0 0 1 357.0742 90.5088)" fill="#FFFFFF" font-family="'MicrosoftYaHei'" font-size="10.911">全部计划</text>
	<g>
		<g>
			<path fill="#2F86BC" d="M773.3,98.2H664.6l26.8-20.5c6.1-4.7,13.6-7.2,21.4-7.2h60.4V98.2z"/>
		</g>
	</g>
	<g>
		<g>
			<path fill="#F9ED58" d="M827.9,98.2H718.6l26.8-20.5c6.1-4.7,13.6-7.2,21.4-7.2h61.1V98.2z"/>
		</g>
	</g>
	<g>
		<g>
			<path fill="#6D54B2" d="M854.1,98.2h-87.9L793,77.7c6.1-4.7,13.6-7.2,21.4-7.2h39.7V98.2z"/>
		</g>
	</g>
	<line fill="none" stroke="#DBDBDB" stroke-miterlimit="10" x1="854.1" y1="98.2" x2="350.6" y2="98.2"/>
</g>
<g id="图层_4_x5F_复制">
	<rect x="350.6" y="190.6" fill="#FFFFFF" width="503.5" height="125.6"/>
	<text transform="matrix(1 0 0 1 382.3242 226.1135)" fill="#231815" font-family="'MicrosoftYaHei-Bold'" font-size="17.4575">名片设计</text>
	
		<text transform="matrix(0.9976 0 -6.975397e-002 0.9976 382.3241 251.706)" fill="#717071" font-family="'MicrosoftYaHei'" font-size="13.1256">计划简介：</text>
	
		<text transform="matrix(0.9976 0 -6.975397e-002 0.9976 447.7203 252.0172)" fill="#717071" font-family="'MicrosoftYaHei'" font-size="10.938">个人名片设计，2款名片包括AB面，名</text>
	
		<text transform="matrix(0.9976 0 -6.975397e-002 0.9976 381.3889 265.0791)" fill="#717071" font-family="'MicrosoftYaHei'" font-size="10.938">片形式包括电子版，和印刷版.</text>
	<rect x="350.6" y="190.4" fill="#0DAC67" width="17.3" height="92.6"/>
	<path fill="#A6DBD5" d="M828.6,236.9H680.9c-3.4,0-6.1-2.7-6.1-6.1l0,0c0-3.4,2.7-6.1,6.1-6.1h147.7c3.4,0,6.1,2.7,6.1,6.1l0,0
		C834.6,234.2,831.9,236.9,828.6,236.9z"/>
	<path fill="#009786" d="M829.1,236.9H680.9c-3.4,0-6.1-2.7-6.1-6.1l0,0c0-3.4,2.7-6.1,6.1-6.1h148.3c3.4,0,6.1,2.7,6.1,6.1l0,0
		C835.3,234.2,832.5,236.9,829.1,236.9z"/>
	<text transform="matrix(0.9976 0 0 1 686.8877 218.6025)" fill="#717071" font-family="'MicrosoftYaHei'" font-size="10.9376">已完成</text>
	<g>
		<g>
			<path fill="#717071" d="M680.9,258.1c0,0,1.2,1.4,3.8,0c0,0,5,3.5,5.1,9.3h-13.5C676.3,267.3,676.3,261.1,680.9,258.1z"/>
			<path fill="#717071" stroke="#FFFFFF" stroke-width="0.5" stroke-miterlimit="10" d="M688.1,256.6c0,0,1.2,1.4,3.8,0
				c0,0,5,5.1,5.1,11h-13.6C683.4,267.7,683.4,259.7,688.1,256.6z"/>
			<circle fill="#717071" cx="682.6" cy="254.7" r="3.6"/>
			<circle fill="#717071" cx="689.9" cy="253.5" r="3.6"/>
		</g>
		<g>
			<path fill="#CD235C" d="M717.7,268.1H714c-3.7,0-6.8-3.1-6.8-6.8l0,0c0-3.7,3.1-6.8,6.8-6.8h3.7c3.7,0,6.8,3.1,6.8,6.8l0,0
				C724.5,265.2,721.5,268.1,717.7,268.1z"/>
			<g>
				<text transform="matrix(1 0 0 1 712.3877 266.2796)" fill="#FFFFFF" font-family="'MicrosoftYaHei'" font-size="12.0021">0</text>
			</g>
		</g>
		<text transform="matrix(0.9976 0 0 1 730.209 266.2797)" font-family="'MicrosoftYaHei'" font-size="10.9376">人协作</text>
	</g>
	<line fill="none" stroke="#DBDBDB" stroke-miterlimit="10" x1="854.1" y1="282.6" x2="367.9" y2="283.1"/>
	<line fill="none" stroke="#DBDBDB" stroke-miterlimit="10" x1="854.1" y1="316.2" x2="367.9" y2="316.7"/>
	<g>
		<path fill="#717071" d="M793.2,269.8h-7.9c-1.6,0-3.1-1.3-3.1-3.1v-6.4c0-1.6,1.3-3.1,3.1-3.1h7.9c1.6,0,3.1,1.3,3.1,3.1v6.4
			C796.2,268.4,794.9,269.8,793.2,269.8z"/>
		<path fill="none" stroke="#717071" stroke-width="3" stroke-miterlimit="10" d="M785.2,259.2v-4.9c0,0-0.3-4.3,4.1-4.3
			c4.5,0,3.9,4.3,3.9,4.3v4.9"/>
		<circle fill="#FFFFFF" cx="789.3" cy="261.9" r="1.3"/>
		<polygon fill="#FFFFFF" points="788.2,265.5 790.4,265.5 789.8,262.6 788.9,262.6 		"/>
	</g>
	<text transform="matrix(0.9976 0 0 1 809.3271 266.2797)" font-family="'MicrosoftYaHei'" font-size="10.9376">私密</text>
	<rect x="350.6" y="283.1" fill="#8C8C8C" width="167.8" height="33.4"/>
	<rect x="518.4" y="283.1" fill="#8C8C8C" width="167.8" height="33.4"/>
	<rect x="686.3" y="283.1" fill="#8C8C8C" width="167.8" height="33.4"/>
	<text transform="matrix(1 0 0 1 406.6926 305.5437)" fill="#FFFFFF" font-family="'MicrosoftYaHei'" font-size="14">修改计划</text>
	<line fill="none" stroke="#FFFFFF" stroke-width="2" stroke-miterlimit="10" x1="686.9" y1="282.6" x2="686.9" y2="316.4"/>
	<line fill="none" stroke="#FFFFFF" stroke-width="2" stroke-miterlimit="10" x1="517.7" y1="282.8" x2="517.7" y2="316.7"/>
	<text transform="matrix(1 0 0 1 734.9997 305.5437)" fill="#FFFFFF" font-family="'MicrosoftYaHei'" font-size="14">设置选项卡</text>
	<text transform="matrix(1 0 0 1 578.3332 305.5436)" fill="#FFFFFF" font-family="'MicrosoftYaHei'" font-size="14">讨论组</text>
</g>
<g id="图层_4">
	<rect x="350.6" y="98.2" fill="#FFFFFF" width="503.5" height="92"/>
	<text transform="matrix(1 0 0 1 382.3242 133.7337)" fill="#231815" font-family="'MicrosoftYaHei-Bold'" font-size="17.4575">Vi设计-毕业设计-食品类</text>
	
		<text transform="matrix(0.9976 0 -6.975397e-002 0.9976 382.3246 159.3266)" fill="#717071" font-family="'MicrosoftYaHei'" font-size="13.1256">计划简介：</text>
	
		<text transform="matrix(0.9976 0 -6.975397e-002 0.9976 447.7199 159.6378)" fill="#717071" font-family="'MicrosoftYaHei'" font-size="10.938">除基础元素外还包括产品包装、宣传</text>
	
		<text transform="matrix(0.9976 0 -6.975397e-002 0.9976 381.3896 172.6992)" fill="#717071" font-family="'MicrosoftYaHei'" font-size="10.938">册、H5页面. 设计定位年轻时尚.</text>
	<rect x="350.6" y="98.2" fill="#2F86BC" width="17.3" height="92.4"/>
	<path fill="#A6DBD5" d="M828.6,144.5H680.9c-3.4,0-6.1-2.7-6.1-6.1l0,0c0-3.4,2.7-6.1,6.1-6.1h147.7c3.4,0,6.1,2.7,6.1,6.1l0,0
		C834.6,141.8,831.9,144.5,828.6,144.5z"/>
	<path fill="#009786" d="M801.6,144.5H680.9c-3.4,0-6.1-2.7-6.1-6.1l0,0c0-3.4,2.7-6.1,6.1-6.1h120.8c3.4,0,6.1,2.7,6.1,6.1l0,0
		C807.8,141.8,805,144.5,801.6,144.5z"/>
	<text transform="matrix(0.9976 0 0 1 686.8877 126.223)" fill="#717071" font-family="'MicrosoftYaHei'" font-size="10.9376">完成度：80%</text>
	<g>
		<g>
			<path fill="#717071" d="M680.9,165.6c0,0,1.2,1.4,3.8,0c0,0,5,3.5,5.1,9.3h-13.5C676.3,174.9,676.3,168.7,680.9,165.6z"/>
			<path fill="#717071" stroke="#FFFFFF" stroke-width="0.5" stroke-miterlimit="10" d="M688.1,164.3c0,0,1.2,1.4,3.8,0
				c0,0,5,5.1,5.1,11h-13.6C683.4,175.3,683.4,167.4,688.1,164.3z"/>
			<circle fill="#717071" cx="682.6" cy="162.3" r="3.6"/>
			<circle fill="#717071" cx="689.9" cy="161.2" r="3.6"/>
		</g>
		<g>
			<path fill="#CD235C" d="M717.7,175.8H714c-3.7,0-6.8-3.1-6.8-6.8l0,0c0-3.7,3.1-6.8,6.8-6.8h3.7c3.7,0,6.8,3.1,6.8,6.8l0,0
				C724.5,172.7,721.5,175.8,717.7,175.8z"/>
			<g>
				<text transform="matrix(1 0 0 1 712.3877 173.8996)" fill="#FFFFFF" font-family="'MicrosoftYaHei'" font-size="12.0021">3</text>
			</g>
		</g>
		<text transform="matrix(0.9976 0 0 1 730.209 173.8998)" font-family="'MicrosoftYaHei'" font-size="10.9376">人协作</text>
	</g>
	<line fill="none" stroke="#DBDBDB" stroke-miterlimit="10" x1="854.1" y1="190.3" x2="367.9" y2="190.6"/>
	<g>
		<path fill="#717071" d="M793.2,178.6h-7.9c-1.6,0-3.1-1.3-3.1-3.1v-6.4c0-1.6,1.3-3.1,3.1-3.1h7.9c1.6,0,3.1,1.3,3.1,3.1v6.4
			C796.2,177.2,794.9,178.6,793.2,178.6z"/>
		<path fill="none" stroke="#717071" stroke-width="3" stroke-miterlimit="10" d="M801,166.8v-3.9c0,0-0.2-3.5-4.8-3.5
			c-4.6,0-4.6,3.5-4.6,3.5v3.9"/>
		<circle fill="#FFFFFF" cx="789.3" cy="170.7" r="1.3"/>
		<polygon fill="#FFFFFF" points="788.2,174.4 790.4,174.4 789.8,171.4 788.9,171.4 		"/>
	</g>
	<text transform="matrix(0.9976 0 0 1 809.3281 175.7548)" font-family="'MicrosoftYaHei'" font-size="10.9376">公开</text>
</g>
<g>
	<g>
		<path fill="none" stroke="#9B9B9B" stroke-width="2" stroke-miterlimit="10" stroke-dasharray="7.0154,7.0154" d="M833.5,403.9
			H370.8c-6.4,0-11.5-5.2-11.5-11.5v-55.3c0-6.4,5.2-11.5,11.5-11.5h462.7c6.4,0,11.5,5.2,11.5,11.5v55.3
			C845,398.8,839.8,403.9,833.5,403.9z"/>
	</g>
	<line fill="none" stroke="#9B9B9B" stroke-width="4" stroke-miterlimit="10" x1="602.4" y1="379.6" x2="602.4" y2="349.9"/>
	<line fill="none" stroke="#9B9B9B" stroke-width="4" stroke-miterlimit="10" x1="617" y1="364.8" x2="587.3" y2="364.8"/>
</g>
<g id="图层_3">
	<g>
		<path fill="none" stroke="#FFFFFF" stroke-width="2" stroke-miterlimit="10" d="M822.2,40.6h-14.6c-3.2,0-5.8-2.6-5.8-5.8V23
			c0-3.2,2.6-5.8,5.8-5.8h14.6c3.2,0,5.8,2.6,5.8,5.8v11.9C827.9,37.9,825.3,40.6,822.2,40.6z"/>
		<path fill="#FFFFFF" d="M815.4,30.3L815,33c0,0.3,0.2,0.5,0.5,0.4l2.4-0.7c0.3-0.1,0.4-0.4,0.2-0.7l-2-2.1
			C815.8,29.9,815.4,30,815.4,30.3z"/>
		<path fill="#FFFFFF" d="M816.3,28.1l10.8-13.3c0.3-0.4,1.1-0.5,1.5-0.1l2.9,2.6c0.4,0.4,0.4,1.1,0.1,1.5l-11.5,13.1
			c-0.4,0.4-1.1,0.4-1.5,0l-2.3-2.4C815.9,29.1,815.9,28.4,816.3,28.1z"/>
	</g>
	<g>
		<path fill="#FFFFFF" stroke="#FFFFFF" stroke-width="2" stroke-miterlimit="10" d="M689.3,43.1H517.5c-8,0-14.5-6.5-14.5-14.5l0,0
			c0-8,6.5-14.5,14.5-14.5h171.9c8,0,14.5,6.5,14.5,14.5l0,0C704,36.5,697.4,43.1,689.3,43.1z"/>
		<path fill="#CD235C" d="M570.1,14h-52.6c0,0-14.5,0.7-14.5,14.5s14.5,14.5,14.5,14.5h52.6V14z"/>
		<text transform="matrix(1 0 0 1 525.5674 34.8226)" fill="#F7F7F7" font-family="'MicrosoftYaHei'" font-size="16.3737">计划</text>
		<text transform="matrix(1 0 0 1 558.3145 35.5155)" fill="#231815" font-family="'MicrosoftYaHei'" font-size="16.3737">      </text>
		<text transform="matrix(1 0 0 1 649.1934 34.8226)" fill="#595757" font-family="'MicrosoftYaHei'" font-size="16.3737">笔记</text>
		<line fill="none" stroke="#CD235C" stroke-miterlimit="10" x1="570.4" y1="14" x2="570.4" y2="43.1"/>
		<line fill="none" stroke="#CD235C" stroke-miterlimit="10" x1="636.8" y1="14" x2="636.8" y2="43.1"/>
		<text transform="matrix(1 0 0 1 589.1616 34.8221)" fill="#595757" font-family="'MicrosoftYaHei'" font-size="16.3737">参与</text>
	</g>
	<polyline fill="none" stroke="#FFFFFF" stroke-width="2" stroke-miterlimit="10" points="387.4,19.3 377.3,30.2 387.4,42.6 	"/>
	<line fill="none" stroke="#DBDBDB" stroke-miterlimit="10" x1="854.1" y1="56.2" x2="350.6" y2="56.2"/>
</g>
</svg>
