<?xml version="1.0" encoding="utf-8"?>
<!-- Generator: Adobe Illustrator 18.0.0, SVG Export Plug-In . SVG Version: 6.00 Build 0)  -->
<!DOCTYPE svg PUBLIC "-//W3C//DTD SVG 1.1//EN" "http://www.w3.org/Graphics/SVG/1.1/DTD/svg11.dtd">
<svg version="1.1" id="图层_2" xmlns="http://www.w3.org/2000/svg" xmlns:xlink="http://www.w3.org/1999/xlink" x="0px" y="0px"
	 viewBox="0 0 461.5 771.6" enable-background="new 0 0 461.5 771.6" xml:space="preserve">
<rect x="0" y="0" fill="#FFFFFF" width="461.5" height="771.6"/>
<rect x="0" y="0" fill="#CD235C" width="461.5" height="23"/>
<text transform="matrix(1 0 0 1 140.8872 58.3659)"><tspan x="0" y="0" fill="#231815" font-family="'MicrosoftYaHei'" font-size="21">通知  </tspan><tspan x="54.4" y="0" fill="#231815" font-family="'MicrosoftYaHei'" font-size="21" letter-spacing="11">	</tspan><tspan x="72" y="0" fill="#231815" font-family="'MicrosoftYaHei'" font-size="21" letter-spacing="29">	</tspan><tspan x="108" y="0" fill="#595757" font-family="'MicrosoftYaHei'" font-size="21">私信</tspan></text>
<rect x="140.9" y="64.9" fill="#CD235C" width="40.5" height="2.7"/>
<line fill="none" stroke="#DBDBDB" stroke-miterlimit="10" x1="461.5" y1="72.5" x2="0" y2="72.5"/>
<line fill="none" stroke="#DBDBDB" stroke-miterlimit="10" x1="458.2" y1="156.9" x2="-3.3" y2="156.9"/>
<text transform="matrix(1 0 0 1 8.3883 95.8661)" fill="#717071" font-family="'MicrosoftYaHei'" font-size="13">HelloTomorrow 在该计划中留言：</text>
<path fill="#CD235C" d="M215.6,129.5h-13.7c-3.4,0-6.2-2.8-6.2-6.2v0c0-3.4,2.8-6.2,6.2-6.2h13.7c3.4,0,6.2,2.8,6.2,6.2v0
	C221.7,126.8,218.9,129.5,215.6,129.5z"/>
<text transform="matrix(1 0 0 1 11.3883 126.8661)" fill="#231815" font-family="'MicrosoftYaHei-Bold'" font-size="16">Vi设计-毕业设计-食品类</text>
<g>
	<text transform="matrix(1 0 0 1 202.3885 127.8331)" fill="#FFFFFF" font-family="'MicrosoftYaHei'" font-size="11">15</text>
</g>
<rect x="405.7" y="72" fill="#CD235C" width="55.8" height="84.3"/>
<text transform="matrix(1 0 0 1 423.0546 119.1995)" fill="#F7F7F7" font-family="'MicrosoftYaHei'" font-size="14">删除</text>
</svg>
