<?xml version="1.0" encoding="utf-8"?>
<!-- Generator: Adobe Illustrator 18.0.0, SVG Export Plug-In . SVG Version: 6.00 Build 0)  -->
<!DOCTYPE svg PUBLIC "-//W3C//DTD SVG 1.1//EN" "http://www.w3.org/Graphics/SVG/1.1/DTD/svg11.dtd">
<svg version="1.1" xmlns="http://www.w3.org/2000/svg" xmlns:xlink="http://www.w3.org/1999/xlink" x="0px" y="0px"
	 viewBox="0 0 160.1 146.7" enable-background="new 0 0 160.1 146.7" xml:space="preserve">
<g id="图层_2">
</g>
<g id="图层_3">
	<path fill="#161616" d="M160.1,81c-0.6,0-1.1,0-1.7,0c-52.2,0-104.5,0-156.7,0c-0.6,0-1.1,0-1.7,0C0,76,0,71,0,65.9
		c0.4,0,0.8,0,1.2,0c52.7,0,105.4,0,158,0c0.3,0,0.6,0,0.8,0C160.1,71,160.1,76,160.1,81z"/>
	<path fill="#161616" d="M126.5,0.2c1,0.2,2.1,0.4,3.1,0.6c11,2.3,17.7,9.2,21.1,19.7c1.2,3.9,1.8,7.9,1.8,12c0,9.3,0,18.6,0,27.9
		c0,0.4,0,0.7-0.1,1.1c-5,0-9.9,0-14.9,0c0-0.5,0-0.9,0-1.4c0-9.1,0.1-18.2,0-27.3c0-2.6-0.4-5.2-1.1-7.7c-1.9-6.9-6.1-10-13.2-10
		c-10,0-20.1,0-30.1,0c-0.5,0-1,0-1.6,0c0-5.1,0-10,0-15C103.1,0.2,114.8,0.2,126.5,0.2z"/>
	<path fill="#161616" d="M69.8,0.5c0,5.1,0,9.9,0,15c-0.5,0-0.9,0-1.4,0c-9.3,0-18.6,0-27.8,0c-3,0-5.9,0.5-8.7,1.5
		c-5.9,2-8.7,6.2-8.7,12.7c0,10.1,0,20.2,0,30.3c0,0.5,0,1,0,1.5c-5,0-9.9,0-15,0c0-0.5,0-0.9,0-1.4c0-10.1,0-20.2,0-30.2
		c0-14.4,8-24.8,22.1-28.1c3.5-0.8,7.1-1.2,10.7-1.3C50,0.4,59.2,0.5,68.3,0.5C68.8,0.5,69.2,0.5,69.8,0.5z"/>
	<path fill="#161616" d="M45,56.2c0-0.8,0-1.7,0-2.5c0-2.4,0-4.9,0-7.3c0-4.8,3.2-8,8.1-8c11.1,0,22.2,0,33.3,0c7.5,0,15,0,22.4,0
		c5.2,0,8.3,3.1,8.3,8.3c0,3.2,0,6.3,0,9.6C93.1,56.2,69.1,56.2,45,56.2z"/>
	<path fill="#161616" d="M91.2,146.7c0-5.1,0-10,0-15c0.5,0,1,0,1.5,0c9.6,0,19.1,0.1,28.7-0.1c2.4,0,4.8-0.6,7-1.3
		c6.2-2,9.1-6.1,9.1-12.8c0-10.2,0-20.3,0-30.5c0-0.5,0-1,0-1.5c5,0,9.9,0,14.9,0c0,0.2,0.1,0.4,0.1,0.6c0,10.9,0.2,21.8,0,32.6
		c-0.2,13.1-8,22.7-20.8,26.3c-4.5,1.3-9.1,1.7-13.7,1.6c-8.4-0.1-16.7,0-25.1,0C92.3,146.7,91.8,146.7,91.2,146.7z"/>
	<path fill="#161616" d="M8.2,85.6c5,0,9.9,0,14.9,0c0,0.5,0,1,0,1.5c0,9.2,0,18.3,0,27.5c0,3.5,0.6,6.9,2,10.1
		c2,4.4,5.3,6.9,10.2,7.3c1.2,0.1,2.5,0.2,3.7,0.2c9.7,0,19.4,0,29,0c0.5,0,0.9,0,1.5,0c0,5,0,9.9,0,14.9c-0.2,0-0.4,0.1-0.6,0.1
		c-10.9,0-21.8,0.2-32.6-0.1c-13.3-0.3-22.6-7.7-26.4-20.4c-1.1-3.7-1.7-7.5-1.7-11.3c0-9.7,0-19.4,0-29C8.1,86.1,8.1,85.9,8.2,85.6
		z"/>
	<path fill="#161616" d="M117.1,91.3c0,4.2,0.1,8.3,0,12.4c-0.2,3.8-3.5,6.7-7.4,6.8c-4.1,0-8.2,0-12.4,0c-14.7,0-29.4,0-44.2,0
		c-5,0-8.1-3.1-8.1-8.1c0-3.7,0-7.4,0-11.1C69,91.3,93,91.3,117.1,91.3z"/>
</g>
</svg>
