<?xml version="1.0" encoding="utf-8"?>
<!-- Generator: Adobe Illustrator 18.0.0, SVG Export Plug-In . SVG Version: 6.00 Build 0)  -->
<!DOCTYPE svg PUBLIC "-//W3C//DTD SVG 1.1//EN" "http://www.w3.org/Graphics/SVG/1.1/DTD/svg11.dtd" [
	<!ENTITY ns_extend "http://ns.adobe.com/Extensibility/1.0/">
	<!ENTITY ns_ai "http://ns.adobe.com/AdobeIllustrator/10.0/">
	<!ENTITY ns_graphs "http://ns.adobe.com/Graphs/1.0/">
	<!ENTITY ns_vars "http://ns.adobe.com/Variables/1.0/">
	<!ENTITY ns_imrep "http://ns.adobe.com/ImageReplacement/1.0/">
	<!ENTITY ns_sfw "http://ns.adobe.com/SaveForWeb/1.0/">
	<!ENTITY ns_custom "http://ns.adobe.com/GenericCustomNamespace/1.0/">
	<!ENTITY ns_adobe_xpath "http://ns.adobe.com/XPath/1.0/">
	<!ENTITY st0 "fill:#7CA74F;">
	<!ENTITY st1 "fill:#ED8A5A;">
	<!ENTITY st2 "fill:#F5AB73;">
	<!ENTITY st3 "fill:#2B1636;">
	<!ENTITY st4 "fill:#FFFFFF;">
	<!ENTITY st5 "fill:#629241;">
]>
<svg version="1.1" id="图层_1" xmlns:x="&ns_extend;" xmlns:i="&ns_ai;" xmlns:graph="&ns_graphs;"
	 xmlns="http://www.w3.org/2000/svg" xmlns:xlink="http://www.w3.org/1999/xlink" x="0px" y="0px" width="217.9px" height="226.2px"
	 viewBox="0 0 217.9 226.2" style="enable-background:new 0 0 217.9 226.2;" xml:space="preserve">
<metadata>
	<sfw  xmlns="&ns_sfw;">
		<slices></slices>
		<sliceSourceBounds  height="198.9" width="119.6" x="539" y="-518.3" bottomLeftOrigin="true"></sliceSourceBounds>
	</sfw>
</metadata>
<g>
	<g>
		<g>
			<g>
				<g>
					<circle style="&st0;" cx="158.2" cy="176.6" r="12"/>
				</g>
			</g>
			<g>
				<rect x="146.2" y="176.6" style="&st0;" width="24" height="36"/>
			</g>
		</g>
	</g>
	<g>
		<g>
			<g>
				<g>
					<circle style="&st0;" cx="62.6" cy="176.6" r="12"/>
				</g>
			</g>
			<g>
				<rect x="50.6" y="176.6" style="&st0;" width="24" height="36"/>
			</g>
		</g>
	</g>
	<g>
		<rect x="98.9" y="140.5" style="&st1;" width="24" height="24"/>
		<g>
			<circle style="&st1;" cx="150.6" cy="76.5" r="8"/>
		</g>
		<g>
			<circle style="&st1;" cx="70.6" cy="76.5" r="8"/>
		</g>
		<g>
			<path style="&st2;" d="M70.9,116.5c0,17.6,14.4,32,32,32h16c17.6,0,32-14.4,32-32v-64c0-17.6-14.4-32-32-32h-16
				c-17.6,0-32,14.4-32,32V116.5z"/>
		</g>
		<path style="&st3;" d="M129.3,20.5C70.9-3.1,70.9,41.5,70.9,41.5l0,0v27.1c52,0,58.4-31.9,58.4-31.9c0,24.8,21.6,31.9,21.6,31.9
			V41.5C150.9,41.5,150.6,20.5,129.3,20.5z"/>
		<path style="&st4;" d="M110.9,120.8c-5.3,0-9.6-4.3-9.6-9.6h19.2C120.5,116.5,116.2,120.8,110.9,120.8z"/>
	</g>
	<path style="&st0;" d="M62.9,164.6h95.3c0,0,2.9,24-8,48H70.8C60,188.6,62.9,164.6,62.9,164.6z"/>
	<g>
		<path style="&st5;" d="M110.9,178.2c0,0-13.6-6.1-13.6-13.6h27.2C124.5,172.1,110.9,178.2,110.9,178.2z"/>
		<path style="&st5;" d="M110.9,178.2l-28-13.6c0,0,6.1-7.6,16,0L110.9,178.2z"/>
		<path style="&st5;" d="M110.9,178.2l28-13.6c0,0-6.1-7.6-16,0L110.9,178.2z"/>
	</g>
</g>
<g>
</g>
<g>
</g>
<g>
</g>
<g>
</g>
<g>
</g>
<g>
</g>
</svg>
