<?xml version="1.0" encoding="utf-8"?>
<!-- Generator: Adobe Illustrator 18.0.0, SVG Export Plug-In . SVG Version: 6.00 Build 0)  -->
<!DOCTYPE svg PUBLIC "-//W3C//DTD SVG 1.1//EN" "http://www.w3.org/Graphics/SVG/1.1/DTD/svg11.dtd" [
	<!ENTITY ns_extend "http://ns.adobe.com/Extensibility/1.0/">
	<!ENTITY ns_ai "http://ns.adobe.com/AdobeIllustrator/10.0/">
	<!ENTITY ns_graphs "http://ns.adobe.com/Graphs/1.0/">
	<!ENTITY ns_vars "http://ns.adobe.com/Variables/1.0/">
	<!ENTITY ns_imrep "http://ns.adobe.com/ImageReplacement/1.0/">
	<!ENTITY ns_sfw "http://ns.adobe.com/SaveForWeb/1.0/">
	<!ENTITY ns_custom "http://ns.adobe.com/GenericCustomNamespace/1.0/">
	<!ENTITY ns_adobe_xpath "http://ns.adobe.com/XPath/1.0/">
	<!ENTITY st0 "fill:#B09144;">
	<!ENTITY st1 "fill:#F0A793;">
	<!ENTITY st2 "fill:#C44443;">
	<!ENTITY st3 "fill:#E67C77;">
	<!ENTITY st4 "fill:#FFFFFF;">
	<!ENTITY st5 "fill:#44546E;">
	<!ENTITY st6 "fill:#F6C061;">
]>
<svg version="1.1" id="图层_1" xmlns:x="&ns_extend;" xmlns:i="&ns_ai;" xmlns:graph="&ns_graphs;"
	 xmlns="http://www.w3.org/2000/svg" xmlns:xlink="http://www.w3.org/1999/xlink" x="0px" y="0px" width="217.9px" height="226.2px"
	 viewBox="0 0 217.9 226.2" style="enable-background:new 0 0 217.9 226.2;" xml:space="preserve">
<metadata>
	<sfw  xmlns="&ns_sfw;">
		<slices></slices>
		<sliceSourceBounds  height="202.4" width="107.1" x="542.2" y="-522.4" bottomLeftOrigin="true"></sliceSourceBounds>
	</sfw>
</metadata>
<g>
	<rect x="65.5" y="106.9" style="&st0;" width="84.8" height="66.4"/>
	<g>
		<g>
			<g>
				<g>
					<circle style="&st1;" cx="148.3" cy="186.1" r="12.7"/>
				</g>
			</g>
			<g>
				<rect x="135.5" y="186.1" style="&st1;" width="25.4" height="30.5"/>
			</g>
		</g>
	</g>
	<g>
		<g>
			<g>
				<g>
					<circle style="&st1;" cx="66.6" cy="186.1" r="12.7"/>
				</g>
			</g>
			<g>
				<rect x="53.9" y="186.1" style="&st1;" width="25.4" height="30.5"/>
			</g>
		</g>
	</g>
	<path style="&st2;" d="M142.8,216.6c7.9-22.7,5.4-43.3,5.4-43.3H66.8c0,0-2.5,20.6,5.4,43.3H142.8z"/>
	<g>
		<rect x="74.9" y="173.4" style="&st2;" width="65.2" height="43.3"/>
	</g>
	<rect x="95.2" y="147.9" style="&st3;" width="25.4" height="25.4"/>
	<g>
		<circle style="&st3;" cx="150" cy="80.1" r="8.5"/>
	</g>
	<g>
		<circle style="&st3;" cx="65.2" cy="80.1" r="8.5"/>
	</g>
	<g>
		<path style="&st1;" d="M65.5,114c0,23.3,19.1,42.4,42.4,42.4h0c23.3,0,42.4-19.1,42.4-42.4V54.7c0-18.7-15.3-33.9-33.9-33.9h-17
			c-18.7,0-33.9,15.3-33.9,33.9V114z"/>
	</g>
	<path style="&st4;" d="M107.9,127c-5.6,0-10.2-4.6-10.2-10.2h20.4C118.1,122.5,113.5,127,107.9,127z"/>
	<polygon style="&st5;" points="107.9,192 126.5,173.4 89.2,173.4 	"/>
	<polygon style="&st3;" points="107.9,187.8 93.5,173.4 122.3,173.4 	"/>
	<path style="&st6;" d="M107.9,20.7h13.7c0,0,28.7,0,28.7,22.2v0v136.4h-9.5V54.7c0-4.7-3.8-8.5-8.5-8.5h-24.4H83.5
		c-4.7,0-8.5,3.8-8.5,8.5v124.8h-9.5V42.9v0c0-22.2,28.7-22.2,28.7-22.2H107.9z"/>
	<path style="&st6;" d="M92.8,14.2h30.1c4.4,0,7.9,3.6,7.9,7.9v19.3c0,4.4-3.6,7.9-7.9,7.9H92.8c-4.4,0-7.9-3.6-7.9-7.9V22.2
		C84.9,17.8,88.5,14.2,92.8,14.2z"/>
</g>
<g>
</g>
<g>
</g>
<g>
</g>
<g>
</g>
<g>
</g>
<g>
</g>
</svg>
