<?xml version="1.0" encoding="utf-8"?>
<!-- Generator: Adobe Illustrator 18.0.0, SVG Export Plug-In . SVG Version: 6.00 Build 0)  -->
<!DOCTYPE svg PUBLIC "-//W3C//DTD SVG 1.1//EN" "http://www.w3.org/Graphics/SVG/1.1/DTD/svg11.dtd" [
	<!ENTITY ns_extend "http://ns.adobe.com/Extensibility/1.0/">
	<!ENTITY ns_ai "http://ns.adobe.com/AdobeIllustrator/10.0/">
	<!ENTITY ns_graphs "http://ns.adobe.com/Graphs/1.0/">
	<!ENTITY ns_vars "http://ns.adobe.com/Variables/1.0/">
	<!ENTITY ns_imrep "http://ns.adobe.com/ImageReplacement/1.0/">
	<!ENTITY ns_sfw "http://ns.adobe.com/SaveForWeb/1.0/">
	<!ENTITY ns_custom "http://ns.adobe.com/GenericCustomNamespace/1.0/">
	<!ENTITY ns_adobe_xpath "http://ns.adobe.com/XPath/1.0/">
	<!ENTITY st0 "fill:#2B1636;">
	<!ENTITY st1 "fill:#68758A;">
	<!ENTITY st2 "fill:#44546E;">
	<!ENTITY st3 "fill:#ED8A5A;">
	<!ENTITY st4 "fill:#F5AB73;">
	<!ENTITY st5 "fill:#FFFFFF;">
	<!ENTITY st6 "fill:#C44443;">
	<!ENTITY st7 "fill:#DA5946;">
]>
<svg version="1.1" id="图层_1" xmlns:x="&ns_extend;" xmlns:i="&ns_ai;" xmlns:graph="&ns_graphs;"
	 xmlns="http://www.w3.org/2000/svg" xmlns:xlink="http://www.w3.org/1999/xlink" x="0px" y="0px" width="217.9px" height="226.2px"
	 viewBox="0 0 217.9 226.2" style="enable-background:new 0 0 217.9 226.2;" xml:space="preserve">
<metadata>
	<sfw  xmlns="&ns_sfw;">
		<slices></slices>
		<sliceSourceBounds  height="191.5" width="89.9" x="555" y="-514.5" bottomLeftOrigin="true"></sliceSourceBounds>
	</sfw>
</metadata>
<g>
	<path style="&st0;" d="M126.1,40.5c1.1-2.2,1.8-4.7,1.8-7.3c0-8.7-7.1-15.8-15.8-15.8s-15.8,7.1-15.8,15.8c0,2.7,0.7,5.2,1.8,7.4
		c-14.7,4.6-25.3,18.3-25.3,34.6V132c0,14.5,11.7,26.2,26.2,26.2h26.5c14.5,0,26.2-11.7,26.2-26.2V75.1
		C151.6,58.8,140.9,45.1,126.1,40.5z"/>
	<g>
		<g>
			<g>
				<g>
					<circle style="&st1;" cx="145.9" cy="183.2" r="10.7"/>
				</g>
			</g>
			<g>
				<rect x="135.2" y="183.2" style="&st1;" width="21.4" height="25.6"/>
			</g>
		</g>
	</g>
	<g>
		<g>
			<g>
				<g>
					<circle style="&st1;" cx="77.3" cy="183.2" r="10.7"/>
				</g>
			</g>
			<g>
				<rect x="66.6" y="183.2" style="&st1;" width="21.4" height="25.6"/>
			</g>
		</g>
	</g>
	<path style="&st2;" d="M141.3,208.8c6.6-19,4.6-36.3,4.6-36.3H77.5c0,0-2.1,17.3,4.6,36.3H141.3z"/>
	<g>
		<rect x="84.3" y="172.5" style="&st2;" width="54.8" height="36.3"/>
	</g>
	<rect x="101.3" y="151.2" style="&st3;" width="21.4" height="21.4"/>
	<g>
		<circle style="&st3;" cx="147.4" cy="94.2" r="7.1"/>
	</g>
	<g>
		<circle style="&st3;" cx="76.2" cy="94.2" r="7.1"/>
	</g>
	<g>
		<path style="&st4;" d="M76.4,122.7c0,19.6,16,35.6,35.6,35.6h0c19.6,0,35.6-16,35.6-35.6V72.8c0-15.7-12.8-28.5-28.5-28.5h-14.2
			c-15.7,0-28.5,12.8-28.5,28.5V122.7z"/>
	</g>
	<path style="&st5;" d="M112,133.6c-4.7,0-8.5-3.8-8.5-8.5h17.1C120.5,129.8,116.7,133.6,112,133.6z"/>
	<path style="&st0;" d="M75.9,87.1h9.6c14.7,0,26.6-11.9,26.6-26.6V44h-9.6c-14.7,0-26.6,11.9-26.6,26.6V87.1z"/>
	<path style="&st0;" d="M148.2,87.1h-9.6c-14.7,0-26.6-11.9-26.6-26.6V44h9.6c14.7,0,26.6,11.9,26.6,26.6V87.1z"/>
	<g>
		<g>
			<path style="&st6;" d="M139.1,172.5H83.3v-9.6c0-5.7,4.6-10.3,10.3-10.3h35.2c5.7,0,10.3,4.6,10.3,10.3V172.5z"/>
			<rect x="106.8" y="172.5" style="&st6;" width="20.6" height="36.3"/>
			<rect x="96.6" y="172.5" style="&st6;" width="20.6" height="18.2"/>
		</g>
		<g>
			<path style="&st7;" d="M109.8,157.4c2.6,0,4.7-2.1,4.7-4.7h-9.4C105.1,155.3,107.2,157.4,109.8,157.4z"/>
			<path style="&st7;" d="M127.7,157.4c2.5,0,4.6-2,4.7-4.5c-0.6-0.1-1.3-0.2-1.9-0.2H123C123,155.3,125.1,157.4,127.7,157.4z"/>
			<path style="&st7;" d="M131.6,162.1c0,2.6,2.1,4.7,4.7,4.7c1.1,0,2-0.4,2.8-1v-4.5c0-1.2-0.3-2.4-0.7-3.4
				c-0.6-0.3-1.3-0.5-2.1-0.5C133.7,157.4,131.6,159.5,131.6,162.1z"/>
			<path style="&st7;" d="M87.2,162.1c0-2-1.3-3.7-3.1-4.4c-0.5,1.1-0.8,2.3-0.8,3.6v5.4C85.5,166.3,87.2,164.4,87.2,162.1z"/>
			<path style="&st7;" d="M91.9,166.8c-2.6,0-4.7,2.1-4.7,4.7c0,0.4,0.1,0.7,0.1,1.1h9.1c0.1-0.3,0.1-0.7,0.1-1.1
				C96.6,168.9,94.5,166.8,91.9,166.8z"/>
			<path style="&st7;" d="M91.9,157.4c2.6,0,4.7-2.1,4.7-4.7h-4.6c-1.7,0-3.2,0.5-4.5,1.3C88,155.9,89.7,157.4,91.9,157.4z"/>
			<path style="&st7;" d="M127.7,166.8c-2.6,0-4.7,2.1-4.7,4.7c0,2.5,1.9,4.5,4.4,4.7v-3.6h4.9c0.1-0.3,0.1-0.7,0.1-1.1
				C132.4,168.9,130.3,166.8,127.7,166.8z"/>
			<path style="&st7;" d="M100.4,185.5c2.6,0,4.7-2.1,4.7-4.7s-2.1-4.7-4.7-4.7c-1.6,0-3,0.8-3.8,2v5.4
				C97.4,184.7,98.8,185.5,100.4,185.5z"/>
			<path style="&st7;" d="M123,190.2c0,2.5,1.9,4.5,4.4,4.7v-9.3C125,185.7,123,187.7,123,190.2z"/>
			<path style="&st7;" d="M127.4,204.3c-2.4,0.2-4.3,2.1-4.4,4.5h4.4V204.3z"/>
			<path style="&st7;" d="M109.8,204.3c-1.1,0-2.1,0.4-3,1.1v3.4h7.6C114.4,206.3,112.3,204.3,109.8,204.3z"/>
			<path style="&st7;" d="M114.5,190.2c0-2.6-2.1-4.7-4.7-4.7c-2.6,0-4.7,2.1-4.7,4.7c0,0.2,0,0.3,0,0.4h1.7v3.2
				c0.8,0.7,1.8,1.1,3,1.1C112.4,194.9,114.5,192.8,114.5,190.2z"/>
			<circle style="&st7;" cx="100.4" cy="162.1" r="4.7"/>
			<circle style="&st7;" cx="118.3" cy="162.1" r="4.7"/>
			<circle style="&st7;" cx="109.8" cy="171.4" r="4.7"/>
			<circle style="&st7;" cx="118.3" cy="180.8" r="4.7"/>
			<circle style="&st7;" cx="118.3" cy="199.6" r="4.7"/>
		</g>
	</g>
	<path style="&st6;" d="M142.9,83.7h-23.4c-2.6,0-4.8,2.1-4.8,4.8h-5.5c0-2.6-2.1-4.8-4.8-4.8H81.1c-2.6,0-4.8,2.1-4.8,4.8v11.2
		c0,2.6,2.1,4.8,4.8,4.8h23.4c2.6,0,4.8-2.1,4.8-4.8V92h5.5v7.7c0,2.6,2.1,4.8,4.8,4.8h23.4c2.6,0,4.8-2.1,4.8-4.8V88.5
		C147.7,85.8,145.6,83.7,142.9,83.7z M105.1,99.7c0,0.4-0.3,0.7-0.7,0.7H81.1c-0.4,0-0.7-0.3-0.7-0.7V88.5c0-0.4,0.3-0.7,0.7-0.7
		h23.4c0.4,0,0.7,0.3,0.7,0.7V99.7z M143.6,99.7c0,0.4-0.3,0.7-0.7,0.7h-23.4c-0.4,0-0.7-0.3-0.7-0.7V88.5c0-0.4,0.3-0.7,0.7-0.7
		h23.4c0.4,0,0.7,0.3,0.7,0.7V99.7z"/>
</g>
<g>
</g>
<g>
</g>
<g>
</g>
<g>
</g>
<g>
</g>
<g>
</g>
</svg>
