<?xml version="1.0" encoding="utf-8"?>
<!-- Generator: Adobe Illustrator 18.0.0, SVG Export Plug-In . SVG Version: 6.00 Build 0)  -->
<!DOCTYPE svg PUBLIC "-//W3C//DTD SVG 1.1//EN" "http://www.w3.org/Graphics/SVG/1.1/DTD/svg11.dtd" [
	<!ENTITY ns_extend "http://ns.adobe.com/Extensibility/1.0/">
	<!ENTITY ns_ai "http://ns.adobe.com/AdobeIllustrator/10.0/">
	<!ENTITY ns_graphs "http://ns.adobe.com/Graphs/1.0/">
	<!ENTITY ns_vars "http://ns.adobe.com/Variables/1.0/">
	<!ENTITY ns_imrep "http://ns.adobe.com/ImageReplacement/1.0/">
	<!ENTITY ns_sfw "http://ns.adobe.com/SaveForWeb/1.0/">
	<!ENTITY ns_custom "http://ns.adobe.com/GenericCustomNamespace/1.0/">
	<!ENTITY ns_adobe_xpath "http://ns.adobe.com/XPath/1.0/">
	<!ENTITY st0 "fill:#C44443;">
	<!ENTITY st1 "fill:#F0A793;">
	<!ENTITY st2 "fill:#44546E;">
	<!ENTITY st3 "fill:#DA5946;">
	<!ENTITY st4 "fill:#E67C77;">
	<!ENTITY st5 "fill:#FFFFFF;">
]>
<svg version="1.1" id="图层_1" xmlns:x="&ns_extend;" xmlns:i="&ns_ai;" xmlns:graph="&ns_graphs;"
	 xmlns="http://www.w3.org/2000/svg" xmlns:xlink="http://www.w3.org/1999/xlink" x="0px" y="0px" width="217.9px" height="226.2px"
	 viewBox="0 0 217.9 226.2" style="enable-background:new 0 0 217.9 226.2;" xml:space="preserve">
<metadata>
	<sfw  xmlns="&ns_sfw;">
		<slices></slices>
		<sliceSourceBounds  height="191.6" width="104.7" x="544.9" y="-514.6" bottomLeftOrigin="true"></sliceSourceBounds>
	</sfw>
</metadata>
<g>
	<g>
		<g>
			<g>
				<g>
					<circle style="&st0;" cx="147.4" cy="180.1" r="12"/>
				</g>
			</g>
			<g>
				<rect x="135.4" y="180.1" style="&st1;" width="24" height="28.8"/>
			</g>
		</g>
	</g>
	<g>
		<g>
			<g>
				<g>
					<circle style="&st0;" cx="70.3" cy="180.1" r="12"/>
				</g>
			</g>
			<g>
				<rect x="58.3" y="180.1" style="&st1;" width="24" height="28.8"/>
			</g>
		</g>
	</g>
	<path style="&st2;" d="M142.3,208.9c7.4-21.4,5.1-40.8,5.1-40.8H70.5c0,0-2.3,19.4,5.1,40.8H142.3z"/>
	<g>
		<rect x="78.2" y="168.1" style="&st2;" width="61.5" height="40.8"/>
	</g>
	<g>
		<path style="&st3;" d="M153.2,147.8c2.8,3.2,8.1,1.2,8.1-3V54.9c0-27.8-12.2-49.7-40.9-30h6.5C75.6,49,130.2,121.3,153.2,147.8z"
			/>
		<rect x="97.3" y="144.1" style="&st4;" width="24" height="24"/>
		<g>
			<circle style="&st4;" cx="149.1" cy="80.1" r="8"/>
		</g>
		<g>
			<circle style="&st4;" cx="69.1" cy="80.1" r="8"/>
		</g>
		<g>
			<path style="&st1;" d="M69.3,112.1c0,22,18,40,40,40h0c22,0,40-18,40-40v-56c0-17.6-14.4-32-32-32h-16c-17.6,0-32,14.4-32,32
				V112.1z"/>
		</g>
		<path style="&st3;" d="M132.3,48.1h-23h-23c-4.4,0-8,3.6-8,8v16h-9V45v0c0-20.9,27-20.9,27-20.9h27.1c17.7,0,28.2,7.8,28.2,20.6
			l-2.3,27.4C149.3,72.1,149.3,48.1,132.3,48.1z"/>
		<path style="&st5;" d="M109.3,124.4c-5.3,0-9.6-4.3-9.6-9.6h19.2C118.9,120.1,114.6,124.4,109.3,124.4z"/>
		<path style="&st3;" d="M57.8,78.2l14.8-32.8c6.9-21.9,29.5-18.9,34.4-8l0,0c0,48.7-10.7,59.6-34.9,59.6
			C61.4,96.9,53.4,87.9,57.8,78.2z"/>
	</g>
	<path style="&st0;" d="M109.3,185.7c9.7,0,17.6-7.9,17.6-17.6H91.7C91.7,177.8,99.6,185.7,109.3,185.7z"/>
	<path style="&st4;" d="M109.3,181.7c-7.5,0-13.6-6.1-13.6-13.6h27.2C122.9,175.6,116.8,181.7,109.3,181.7z"/>
</g>
<g>
</g>
<g>
</g>
<g>
</g>
<g>
</g>
<g>
</g>
<g>
</g>
</svg>
