<?xml version="1.0" encoding="utf-8"?>
<!-- Generator: Adobe Illustrator 18.0.0, SVG Export Plug-In . SVG Version: 6.00 Build 0)  -->
<!DOCTYPE svg PUBLIC "-//W3C//DTD SVG 1.1//EN" "http://www.w3.org/Graphics/SVG/1.1/DTD/svg11.dtd" [
	<!ENTITY ns_extend "http://ns.adobe.com/Extensibility/1.0/">
	<!ENTITY ns_ai "http://ns.adobe.com/AdobeIllustrator/10.0/">
	<!ENTITY ns_graphs "http://ns.adobe.com/Graphs/1.0/">
	<!ENTITY ns_vars "http://ns.adobe.com/Variables/1.0/">
	<!ENTITY ns_imrep "http://ns.adobe.com/ImageReplacement/1.0/">
	<!ENTITY ns_sfw "http://ns.adobe.com/SaveForWeb/1.0/">
	<!ENTITY ns_custom "http://ns.adobe.com/GenericCustomNamespace/1.0/">
	<!ENTITY ns_adobe_xpath "http://ns.adobe.com/XPath/1.0/">
	<!ENTITY st0 "fill:#2B1636;">
	<!ENTITY st1 "fill:#DA5946;">
	<!ENTITY st2 "fill:#B17741;">
	<!ENTITY st3 "fill:#845827;">
	<!ENTITY st4 "fill:#FFFFFF;">
]>
<svg version="1.1" id="图层_1" xmlns:x="&ns_extend;" xmlns:i="&ns_ai;" xmlns:graph="&ns_graphs;"
	 xmlns="http://www.w3.org/2000/svg" xmlns:xlink="http://www.w3.org/1999/xlink" x="0px" y="0px" width="217.9px" height="226.2px"
	 viewBox="0 0 217.9 226.2" style="enable-background:new 0 0 217.9 226.2;" xml:space="preserve">
<metadata>
	<sfw  xmlns="&ns_sfw;">
		<slices></slices>
		<sliceSourceBounds  height="197.2" width="125" x="534.8" y="-517" bottomLeftOrigin="true"></sliceSourceBounds>
	</sfw>
</metadata>
<g>
	<g>
		<path style="&st0;" d="M171.4,76.4c0,1.5-2.1,3-2.2,4.5c-0.1,1.5,1.7,3.3,1.5,4.8c-0.2,1.5-2.5,2.7-2.8,4.2
			c-0.3,1.5,1.2,3.5,0.7,5c-0.5,1.5-2.8,2.3-3.4,3.7c-0.6,1.4,0.7,3.6,0,5c-0.7,1.4-3.2,1.8-3.9,3.1c-0.8,1.3,0.1,3.7-0.8,5
			c-0.9,1.3-3.4,1.3-4.3,2.5c-1,1.2-0.4,3.7-1.5,4.8c-1,1.1-3.5,0.8-4.7,1.8c-1.1,1-1,3.6-2.2,4.5c-1.2,1-3.6,0.3-4.9,1.1
			c-1.3,0.9-1.5,3.4-2.8,4.1c-1.3,0.8-3.6-0.3-5,0.4c-1.4,0.7-2,3.1-3.4,3.7c-1.4,0.6-3.5-0.8-5-0.4c-1.5,0.4-2.4,2.8-3.9,3.1
			c-1.5,0.3-3.4-1.3-4.9-1.1c-1.5,0.2-2.8,2.4-4.3,2.5c-1.5,0.1-3.1-1.8-4.7-1.8c-1.5,0-3.2,1.9-4.7,1.8c-1.5-0.1-2.8-2.3-4.3-2.5
			c-1.5-0.2-3.4,1.5-4.9,1.1c-1.5-0.3-2.5-2.7-3.9-3.1c-1.5-0.5-3.6,0.9-5,0.4c-1.4-0.6-2-3-3.4-3.7c-1.4-0.7-3.7,0.4-5-0.4
			c-1.3-0.8-1.6-3.3-2.8-4.1c-1.3-0.9-3.7-0.2-4.9-1.1c-1.2-1-1.1-3.5-2.2-4.5c-1.1-1-3.6-0.7-4.7-1.8c-1-1.1-0.5-3.6-1.5-4.8
			c-1-1.2-3.5-1.2-4.3-2.5c-0.9-1.3,0-3.6-0.8-5c-0.8-1.3-3.3-1.7-3.9-3.1c-0.7-1.4,0.6-3.6,0-5c-0.6-1.4-3-2.2-3.4-3.7
			c-0.4-1.5,1.1-3.5,0.7-5c-0.3-1.5-2.6-2.6-2.8-4.1c-0.2-1.5,1.6-3.3,1.5-4.8c-0.1-1.5-2.2-3-2.2-4.5c0-1.5,2.1-3,2.2-4.5
			c0.1-1.5-1.7-3.3-1.5-4.8c0.2-1.5,2.5-2.7,2.8-4.2c0.3-1.5-1.2-3.5-0.7-5c0.5-1.5,2.8-2.3,3.4-3.7c0.6-1.4-0.7-3.6,0-5
			c0.7-1.4,3.2-1.8,3.9-3.1c0.8-1.3-0.1-3.7,0.8-5c0.9-1.3,3.4-1.3,4.3-2.5c1-1.2,0.4-3.7,1.5-4.8c1-1.1,3.5-0.8,4.7-1.8
			c1.1-1,1-3.6,2.2-4.5c1.2-1,3.6-0.3,4.9-1.1c1.3-0.9,1.5-3.4,2.8-4.1c1.3-0.8,3.6,0.3,5-0.4c1.4-0.7,2-3.1,3.4-3.7
			c1.4-0.6,3.5,0.8,5,0.4c1.5-0.4,2.4-2.8,3.9-3.1c1.5-0.3,3.4,1.3,4.9,1.1c1.5-0.2,2.8-2.4,4.3-2.5c1.5-0.1,3.1,1.8,4.7,1.8
			c1.5,0,3.2-1.9,4.7-1.8c1.5,0.1,2.8,2.3,4.3,2.5c1.5,0.2,3.4-1.5,4.9-1.1c1.5,0.3,2.5,2.7,3.9,3.1c1.5,0.5,3.6-0.9,5-0.4
			c1.4,0.6,2,3,3.4,3.7c1.4,0.7,3.7-0.4,5,0.4c1.3,0.8,1.6,3.3,2.8,4.1c1.3,0.9,3.7,0.2,4.9,1.1c1.2,1,1.1,3.5,2.2,4.5
			c1.1,1,3.6,0.7,4.7,1.8c1,1.1,0.5,3.6,1.5,4.8c1,1.2,3.5,1.2,4.3,2.5c0.9,1.3,0,3.6,0.8,5c0.8,1.3,3.3,1.7,3.9,3.1
			c0.7,1.4-0.6,3.6,0,5c0.6,1.4,3,2.2,3.4,3.7c0.4,1.5-1.1,3.5-0.7,5c0.3,1.5,2.6,2.6,2.8,4.1c0.2,1.5-1.6,3.3-1.5,4.8
			C169.4,73.4,171.4,74.9,171.4,76.4z"/>
	</g>
	<g>
		<g>
			<g>
				<circle style="&st1;" cx="142.7" cy="185.6" r="10.7"/>
			</g>
		</g>
		<g>
			<polygon style="&st2;" points="153.4,211.2 132.1,211.2 132.1,185.6 153.4,185.6 			"/>
		</g>
	</g>
	<g>
		<g>
			<g>
				<g>
					<circle style="&st1;" cx="74.3" cy="185.6" r="10.7"/>
				</g>
			</g>
			<g>
				<polygon style="&st2;" points="64,211.3 85.3,211.2 85,185.6 63.6,185.7 				"/>
			</g>
		</g>
	</g>
	<g>
		<rect x="98.3" y="153.7" style="&st3;" width="21.3" height="21.3"/>
		<g>
			<circle style="&st3;" cx="144.2" cy="96.8" r="7.1"/>
		</g>
		<g>
			<circle style="&st3;" cx="73.2" cy="96.8" r="7.1"/>
		</g>
		<g>
			<path style="&st2;" d="M73.4,125.2c0,19.5,16,35.5,35.5,35.5h0c19.5,0,35.5-16,35.5-35.5V75.5c0-15.6-12.8-28.4-28.4-28.4h-14.2
				c-15.6,0-28.4,12.8-28.4,28.4V125.2z"/>
		</g>
		<path style="&st4;" d="M108.9,136.1c-4.7,0-8.5-3.8-8.5-8.5h17C117.5,132.3,113.6,136.1,108.9,136.1z"/>
		<path style="&st0;" d="M121.5,47.1H96.2c-15.7,0-22.8,7-22.8,18.3l-0.2,24.3c0,0,0-21.3,15.1-21.3h41c15.1,0,15.1,21.3,15.1,21.3
			l0-24.3C144.4,54.1,137.1,47.1,121.5,47.1z"/>
	</g>
	<path style="&st3;" d="M108.9,200.8c0,0-12.1-6.8-12.1-25.8H121C121,194.6,108.9,200.8,108.9,200.8z"/>
	<path style="&st1;" d="M138.2,211.2c6.6-19,4.5-36.2,4.5-36.2H74.5c0,0-2.1,17.2,4.5,36.2H138.2z"/>
	<rect x="81.3" y="175" style="&st1;" width="54.6" height="36.2"/>
</g>
<g>
</g>
<g>
</g>
<g>
</g>
<g>
</g>
<g>
</g>
<g>
</g>
</svg>
