<?xml version="1.0" encoding="utf-8"?>
<!-- Generator: Adobe Illustrator 18.0.0, SVG Export Plug-In . SVG Version: 6.00 Build 0)  -->
<!DOCTYPE svg PUBLIC "-//W3C//DTD SVG 1.1//EN" "http://www.w3.org/Graphics/SVG/1.1/DTD/svg11.dtd" [
	<!ENTITY ns_extend "http://ns.adobe.com/Extensibility/1.0/">
	<!ENTITY ns_ai "http://ns.adobe.com/AdobeIllustrator/10.0/">
	<!ENTITY ns_graphs "http://ns.adobe.com/Graphs/1.0/">
	<!ENTITY ns_vars "http://ns.adobe.com/Variables/1.0/">
	<!ENTITY ns_imrep "http://ns.adobe.com/ImageReplacement/1.0/">
	<!ENTITY ns_sfw "http://ns.adobe.com/SaveForWeb/1.0/">
	<!ENTITY ns_custom "http://ns.adobe.com/GenericCustomNamespace/1.0/">
	<!ENTITY ns_adobe_xpath "http://ns.adobe.com/XPath/1.0/">
	<!ENTITY st0 "fill:#C44443;">
	<!ENTITY st1 "fill:#E67C77;">
	<!ENTITY st2 "fill:#F0A793;">
	<!ENTITY st3 "fill:#FFFFFF;">
	<!ENTITY st4 "fill:#DA5946;">
	<!ENTITY st5 "fill:#44546E;">
]>
<svg version="1.1" id="图层_1" xmlns:x="&ns_extend;" xmlns:i="&ns_ai;" xmlns:graph="&ns_graphs;"
	 xmlns="http://www.w3.org/2000/svg" xmlns:xlink="http://www.w3.org/1999/xlink" x="0px" y="0px" width="217.9px" height="226.2px"
	 viewBox="0 0 217.9 226.2" style="enable-background:new 0 0 217.9 226.2;" xml:space="preserve">
<metadata>
	<sfw  xmlns="&ns_sfw;">
		<slices></slices>
		<sliceSourceBounds  height="210.7" width="127" x="533.8" y="-524.2" bottomLeftOrigin="true"></sliceSourceBounds>
	</sfw>
</metadata>
<g>
	<g>
		<g>
			<g>
				<g>
					<g>
						<circle style="&st0;" cx="159.7" cy="180.3" r="12.7"/>
					</g>
				</g>
				<g>
					<rect x="147" y="180.3" style="&st0;" width="25.4" height="38.2"/>
				</g>
			</g>
		</g>
		<g>
			<g>
				<g>
					<g>
						<circle style="&st0;" cx="58.2" cy="180.3" r="12.7"/>
					</g>
				</g>
				<g>
					<rect x="45.5" y="180.3" style="&st0;" width="25.4" height="38.2"/>
				</g>
			</g>
		</g>
		<g>
			<rect x="96.8" y="142.1" style="&st1;" width="25.4" height="28"/>
			<g>
				<circle style="&st1;" cx="151.7" cy="74.3" r="8.5"/>
			</g>
			<g>
				<circle style="&st1;" cx="66.9" cy="74.3" r="8.5"/>
			</g>
			<g>
				<path style="&st2;" d="M67.1,116.7c0,18.7,15.3,33.9,33.9,33.9h17c18.7,0,33.9-15.3,33.9-33.9V48.8c0-18.7-15.3-33.9-33.9-33.9
					h-17c-18.7,0-33.9,15.3-33.9,33.9V116.7z"/>
			</g>
			<path style="&st3;" d="M109.5,121.2c-5.6,0-10.2-4.6-10.2-10.2h20.4C119.7,116.7,115.1,121.2,109.5,121.2z"/>
		</g>
		<path style="&st0;" d="M58.6,167.6h101c0,0,3,25.4-8.5,50.9H67.1C55.6,193,58.6,167.6,58.6,167.6z"/>
		<polygon style="&st1;" points="109.5,182 95.1,167.6 123.9,167.6 		"/>
		<g>
			<rect x="45.5" y="182.1" style="&st4;" width="127" height="3.6"/>
			<path style="&st4;" d="M118.5,173h51.6c1.3,1.7,1.8,3.6,1.8,3.6h-56.9L118.5,173z"/>
			<path style="&st4;" d="M104.1,176.6H46c0.5-1.9,1.8-3.6,1.8-3.6h52.7L104.1,176.6z"/>
			<rect x="45.5" y="191.2" style="&st4;" width="127" height="3.6"/>
			<rect x="45.5" y="200.3" style="&st4;" width="127" height="3.6"/>
			<rect x="45.5" y="209.5" style="&st4;" width="127" height="3.6"/>
		</g>
		<polygon style="&st5;" points="109.5,182 125.9,196.4 150.6,167.6 123.9,167.6 		"/>
		<polygon style="&st5;" points="109.5,182 93.1,196.4 68.4,167.6 95.1,167.6 		"/>
		<path style="&st4;" d="M147.2,29.5c0,0-4.8-21.8-38.1-21.8v7.2c0,0-3.3-6-15.5-6v6h-6c-11.5,0-20.6,11.5-20.6,22.2v28.7h9.5v-17
			c0-4.7,3.8-8.5,8.5-8.5h24.4h24.4c4.7,0,8.5,3.8,8.5,8.5v17h9.5V37.1C151.9,33.9,150.1,31,147.2,29.5z"/>
	</g>
	<path style="&st5;" d="M146.2,60.9h-27.9c-3.1,0-5.7,2.5-5.7,5.7h-6.5c0-3.1-2.5-5.7-5.7-5.7H72.5c-3.1,0-5.7,2.5-5.7,5.7v13.3
		c0,3.1,2.5,5.7,5.7,5.7h27.9c3.1,0,5.7-2.5,5.7-5.7v-9.2h6.5v9.2c0,3.1,2.5,5.7,5.7,5.7h27.9c3.1,0,5.7-2.5,5.7-5.7V66.6
		C151.9,63.4,149.4,60.9,146.2,60.9z M101.2,79.9c0,0.4-0.4,0.8-0.8,0.8H72.5c-0.4,0-0.8-0.4-0.8-0.8V66.6c0-0.4,0.4-0.8,0.8-0.8
		h27.9c0.4,0,0.8,0.4,0.8,0.8V79.9z M147,79.9c0,0.4-0.4,0.8-0.8,0.8h-27.9c-0.4,0-0.8-0.4-0.8-0.8V66.6c0-0.4,0.4-0.8,0.8-0.8h27.9
		c0.4,0,0.8,0.4,0.8,0.8V79.9z"/>
</g>
<g>
</g>
<g>
</g>
<g>
</g>
<g>
</g>
<g>
</g>
<g>
</g>
</svg>
