<?xml version="1.0" encoding="utf-8"?>
<!-- Generator: Adobe Illustrator 18.0.0, SVG Export Plug-In . SVG Version: 6.00 Build 0)  -->
<!DOCTYPE svg PUBLIC "-//W3C//DTD SVG 1.1//EN" "http://www.w3.org/Graphics/SVG/1.1/DTD/svg11.dtd">
<svg version="1.1" id="图层_1" xmlns="http://www.w3.org/2000/svg" xmlns:xlink="http://www.w3.org/1999/xlink" x="0px" y="0px"
	 viewBox="0 0 1190.6 841.9" enable-background="new 0 0 1190.6 841.9" xml:space="preserve">
<path fill="#CD235C" d="M575.9,834.9L575.9,834.9C348.4,834.9,164,650.5,164,423v0C164,195.5,348.4,11,575.9,11h0
	C803.4,11,987.8,195.5,987.8,423v0C987.8,650.5,803.4,834.9,575.9,834.9z"/>
<g>
	<path fill="#FFFFFF" d="M606.2,270.8v125l-66.8,0.3V233.3h111.7c57.6,0,104.2,51,104.2,113.9v264.9l-203.8,0.6
		c-96.8,0.2-175.4-85.4-175.4-191.2l-0.1-188h71.6v167.1c3.8,36,28.4,108.1,119.6,114.3c36.8,1.9,111.9-20,125.7-108
		c9.6-93.3-23.9-135.1-71.6-137.2C621.4,269.3,615.4,268.8,606.2,270.8z"/>
</g>
</svg>
